<mxfile host="app.diagrams.net" modified="2023-11-26T04:32:07.105Z" agent="Mozilla/5.0 (Macintosh; Intel Mac OS X 10_15_7) AppleWebKit/537.36 (KHTML, like Gecko) Chrome/118.0.0.0 Safari/537.36" etag="FaTZKg_S4-7sn2B_1e_g" version="22.1.4" type="github">
  <diagram name="第 1 页" id="nHp93soFmQCSreUhHKS3">
    <mxGraphModel dx="858" dy="505" grid="1" gridSize="10" guides="1" tooltips="1" connect="1" arrows="1" fold="1" page="1" pageScale="1" pageWidth="827" pageHeight="1169" math="0" shadow="0">
      <root>
        <mxCell id="0" />
        <mxCell id="1" parent="0" />
        <mxCell id="PHkbMErOT04p3KG1fMT4-2" value="" style="edgeStyle=segmentEdgeStyle;endArrow=classic;html=1;curved=0;rounded=0;endSize=8;startSize=8;" edge="1" parent="1">
          <mxGeometry width="50" height="50" relative="1" as="geometry">
            <mxPoint x="190" y="540" as="sourcePoint" />
            <mxPoint x="680" y="540" as="targetPoint" />
          </mxGeometry>
        </mxCell>
        <mxCell id="PHkbMErOT04p3KG1fMT4-3" value="" style="edgeStyle=segmentEdgeStyle;endArrow=classic;html=1;curved=0;rounded=0;endSize=8;startSize=8;" edge="1" parent="1">
          <mxGeometry width="50" height="50" relative="1" as="geometry">
            <mxPoint x="190" y="540" as="sourcePoint" />
            <mxPoint x="190" y="200" as="targetPoint" />
          </mxGeometry>
        </mxCell>
        <mxCell id="PHkbMErOT04p3KG1fMT4-4" value="order history&lt;br&gt;&lt;br&gt;5TB" style="ellipse;whiteSpace=wrap;html=1;aspect=fixed;fillColor=#1ba1e2;fontColor=#ffffff;strokeColor=#006EAF;" vertex="1" parent="1">
          <mxGeometry x="260" y="270" width="100" height="100" as="geometry" />
        </mxCell>
        <mxCell id="PHkbMErOT04p3KG1fMT4-5" value="user event log&lt;br&gt;&lt;br&gt;" style="ellipse;whiteSpace=wrap;html=1;aspect=fixed;fillColor=#f0a30a;fontColor=#000000;strokeColor=#BD7000;" vertex="1" parent="1">
          <mxGeometry x="230" y="430" width="80" height="80" as="geometry" />
        </mxCell>
        <mxCell id="PHkbMErOT04p3KG1fMT4-6" value="compliance&lt;br&gt;30TB" style="ellipse;whiteSpace=wrap;html=1;aspect=fixed;fillColor=#1ba1e2;fontColor=#ffffff;strokeColor=#006EAF;" vertex="1" parent="1">
          <mxGeometry x="520" y="197.5" width="165" height="165" as="geometry" />
        </mxCell>
        <mxCell id="PHkbMErOT04p3KG1fMT4-7" value="c2c&lt;br&gt;1TB" style="ellipse;whiteSpace=wrap;html=1;aspect=fixed;fillColor=#f0a30a;fontColor=#000000;strokeColor=#BD7000;" vertex="1" parent="1">
          <mxGeometry x="400" y="250" width="60" height="60" as="geometry" />
        </mxCell>
        <mxCell id="PHkbMErOT04p3KG1fMT4-9" value="all mainsite datas&lt;br&gt;&lt;br&gt;15TB" style="ellipse;whiteSpace=wrap;html=1;aspect=fixed;fillColor=#f0a30a;fontColor=#000000;strokeColor=#BD7000;" vertex="1" parent="1">
          <mxGeometry x="420" y="362.5" width="137.5" height="137.5" as="geometry" />
        </mxCell>
      </root>
    </mxGraphModel>
  </diagram>
</mxfile>
